<?xml version="1.0" standalone="no"?><svg xmlns="http://www.w3.org/2000/svg" viewBox="0 0 1440 320"><path fill="#273036" fill-opacity="0.7" d="M0,32L34.3,42.7C68.6,53,137,75,206,106.7C274.3,139,343,181,411,202.7C480,224,549,224,617,186.7C685.7,149,754,75,823,69.3C891.4,64,960,128,1029,176C1097.1,224,1166,256,1234,229.3C1302.9,203,1371,117,1406,74.7L1440,32L1440,320L1405.7,320C1371.4,320,1303,320,1234,320C1165.7,320,1097,320,1029,320C960,320,891,320,823,320C754.3,320,686,320,617,320C548.6,320,480,320,411,320C342.9,320,274,320,206,320C137.1,320,69,320,34,320L0,320Z"></path></svg>