<?xml version="1.0" standalone="no"?><svg xmlns="http://www.w3.org/2000/svg" viewBox="0 0 1440 320"><path fill="#273036" fill-opacity="0.7" d="M0,96L12.6,85.3C25.3,75,51,53,76,42.7C101.1,32,126,32,152,48C176.8,64,202,96,227,117.3C252.6,139,278,149,303,149.3C328.4,149,354,139,379,165.3C404.2,192,429,256,455,256C480,256,505,192,531,165.3C555.8,139,581,149,606,160C631.6,171,657,181,682,208C707.4,235,733,277,758,272C783.2,267,808,213,834,186.7C858.9,160,884,160,909,170.7C934.7,181,960,203,985,213.3C1010.5,224,1036,224,1061,208C1086.3,192,1112,160,1137,138.7C1162.1,117,1187,107,1213,96C1237.9,85,1263,75,1288,106.7C1313.7,139,1339,213,1364,218.7C1389.5,224,1415,160,1427,128L1440,96L1440,320L1427.4,320C1414.7,320,1389,320,1364,320C1338.9,320,1314,320,1288,320C1263.2,320,1238,320,1213,320C1187.4,320,1162,320,1137,320C1111.6,320,1086,320,1061,320C1035.8,320,1011,320,985,320C960,320,935,320,909,320C884.2,320,859,320,834,320C808.4,320,783,320,758,320C732.6,320,707,320,682,320C656.8,320,632,320,606,320C581.1,320,556,320,531,320C505.3,320,480,320,455,320C429.5,320,404,320,379,320C353.7,320,328,320,303,320C277.9,320,253,320,227,320C202.1,320,177,320,152,320C126.3,320,101,320,76,320C50.5,320,25,320,13,320L0,320Z"></path></svg>